# xmcd
#
# Track frame offsets:
#	150
#	14946
#	31349
#	49637
#	67594
#	79495
#	97136
#	114033
#	130800
#	146889
#	166811
#	181663
#	194327
#
# Disc length: 2767 seconds
#
# Revision: 1
# Processed by: cddbd v1.5.2PL0 Copyright (c) Steve Scherf et al.
# Submitted via: audiograbber 1.83.01
#
DISCID=ac0acd0d
DTITLE=DJ Ötzi - Rutsch Doch Was Näher
DYEAR=2011
DGENRE=Deusch Party Hits
TTITLE0=DJ-Ötzi - Rutsch Doch Was Näher
TTITLE1=DJ-Ötzi - Herzen Haben Flügel
TTITLE2=DJ-Ötzi - Ich Will Ein Ja Von Dir
TTITLE3=DJ-Ötzi - Engel Sind Für Dich Da
TTITLE4=DJ-Ötzi - Für Gabi Tu Ich Alles
TTITLE5=DJ-Ötzi - Ich Will Dein Engel Sein
TTITLE6=DJ-Ötzi - Kölsch Medly
TTITLE7=DJ-Ötzi - Hurra Wir Leben Noch
TTITLE8=DJ-Ötzi - Lieder An Die Liebe
TTITLE9=DJ-Ötzi - Herzen Haben Flügel
TTITLE10=DJ-Ötzi - Rötsch Doch Jet
TTITLE11=DJ-Ötzi - Seemann Medlay Kurz
TTITLE12=DJ-Ötzi - Fiesta Mexicana
EXTD=Promo CD
EXTT0=
EXTT1=
EXTT2=
EXTT3=
EXTT4=
EXTT5=
EXTT6=
EXTT7=
EXTT8=
EXTT9=
EXTT10=
EXTT11=
EXTT12=
PLAYORDER=
